<svg width="1200" height="1200" viewBox="0 0 1200 1200" fill="none" xmlns="http://www.w3.org/2000/svg">
<rect width="1200" height="1200" fill="#363636"/>
<rect x="550" y="610" width="100" height="300" rx="40" fill="#FF9AD9"/>
<path d="M610 447.603C610 417.18 610 401.969 615.753 390.277C621.211 379.185 630.185 370.211 641.277 364.753C652.969 359 668.18 359 698.603 359H921.397C951.82 359 967.031 359 978.723 364.753C989.815 370.211 998.789 379.185 1004.25 390.277C1010 401.969 1010 417.18 1010 447.603V447.603C1010 496.496 1010 520.943 1000.75 539.734C991.983 557.56 977.56 571.983 959.734 580.754C940.943 590 916.496 590 867.603 590H752.397C703.504 590 679.057 590 660.266 580.754C642.44 571.983 628.017 557.56 619.246 539.734C610 520.943 610 496.496 610 447.603V447.603Z" fill="#FF9AD9"/>
<rect x="748" y="240" width="124" height="258" rx="46" fill="#363636"/>
<path d="M610 359C610 337.567 610 326.85 613.502 318.397C618.17 307.125 627.125 298.17 638.397 293.502C646.85 290 657.567 290 679 290V290C700.433 290 711.15 290 719.603 293.502C730.875 298.17 739.83 307.125 744.498 318.397C748 326.85 748 337.567 748 359V471H610V359Z" fill="#FF9AD9"/>
<path d="M872 359C872 337.567 872 326.85 875.502 318.397C880.17 307.125 889.125 298.17 900.397 293.502C908.85 290 919.567 290 941 290V290C962.433 290 973.15 290 981.603 293.502C992.875 298.17 1001.83 307.125 1006.5 318.397C1010 326.85 1010 337.567 1010 359V471H872V359Z" fill="#FF9AD9"/>
<rect x="190" y="610" width="340" height="300" rx="40" fill="#FF9AD9"/>
<rect x="177" y="686" width="265" height="95" rx="16" fill="#363636"/>
<rect x="190" y="763" width="147" height="76" rx="16" fill="#FF9AD9"/>
<rect x="337" y="733" width="105" height="95" rx="27" fill="#363636"/>
<path d="M177 625.6C177 616.639 177 612.159 178.744 608.736C180.278 605.726 182.726 603.278 185.736 601.744C189.159 600 193.639 600 202.6 600H291V695H202.6C193.639 695 189.159 695 185.736 693.256C182.726 691.722 180.278 689.274 178.744 686.264C177 682.841 177 678.361 177 669.4V625.6Z" fill="#363636"/>
<rect x="275" y="610" width="230" height="76" rx="16" fill="#FF9AD9"/>
<path d="M190 315H590V526C590 548.402 590 559.603 585.64 568.16C581.805 575.686 575.686 581.805 568.16 585.64C559.603 590 548.402 590 526 590H254C231.598 590 220.397 590 211.84 585.64C204.314 581.805 198.195 575.686 194.36 568.16C190 559.603 190 548.402 190 526V315Z" fill="#FF9AD9"/>
<rect x="177" y="447" width="261" height="67" rx="16" fill="#363636"/>
<path d="M190 316C190 302.193 201.193 291 215 291H354C367.807 291 379 302.193 379 316V316H190V316Z" fill="#FF9AD9"/>
<path d="M484 316C484 302.193 495.193 291 509 291H565C578.807 291 590 302.193 590 316V316H484V316Z" fill="#FF9AD9"/>
<path d="M380 507.2C380 492.079 380 484.518 382.943 478.742C385.531 473.662 389.662 469.531 394.742 466.943C400.518 464 408.079 464 423.2 464H444.5C456.142 464 461.964 464 466.603 465.765C473.805 468.506 479.494 474.195 482.235 481.397C484 486.036 484 491.858 484 503.5V503.5C484 515.142 484 520.964 482.235 525.603C479.494 532.805 473.805 538.494 466.603 541.235C461.964 543 456.142 543 444.5 543H407.2C397.679 543 392.919 543 389.282 541.147C386.083 539.517 383.483 536.917 381.853 533.718C380 530.081 380 525.321 380 515.8V507.2Z" fill="#363636"/>
<path d="M379 269H484V345.684C484 357.457 474.457 367 462.684 367H428C400.938 367 379 345.062 379 318V290V269Z" fill="#363636"/>
<path d="M190 415H465V464H215.6C206.639 464 202.159 464 198.736 462.256C195.726 460.722 193.278 458.274 191.744 455.264C190 451.841 190 447.361 190 438.4V415Z" fill="#FF9AD9"/>
<path d="M190 526C190 518.548 190 514.822 191.148 511.859C192.875 507.4 196.4 503.875 200.859 502.148C203.822 501 207.548 501 215 501H355C362.452 501 366.178 501 369.141 502.148C373.6 503.875 377.125 507.4 378.852 511.859C380 514.822 380 518.548 380 526V526H190V526Z" fill="#FF9AD9"/>
<rect x="742" y="664" width="199" height="191" fill="#FF9AD9"/>
<rect x="764" y="624" width="66" height="99" fill="#FF9AD9"/>
<rect x="836" y="790" width="66" height="99" fill="#FF9AD9"/>
<path d="M670 673.5C670 651.57 670 640.604 674.183 632.191C678.064 624.387 684.387 618.064 692.191 614.183C700.604 610 711.57 610 733.5 610V610C755.43 610 766.396 610 774.809 614.183C782.613 618.064 788.936 624.387 792.817 632.191C797 640.604 797 651.57 797 673.5V846.5C797 868.43 797 879.396 792.817 887.809C788.936 895.613 782.613 901.936 774.809 905.817C766.396 910 755.43 910 733.5 910V910C711.57 910 700.604 910 692.191 905.817C684.387 901.936 678.064 895.613 674.183 887.809C670 879.396 670 868.43 670 846.5V673.5Z" fill="#FF9AD9"/>
<path d="M670 674C670 651.598 670 640.397 674.36 631.84C678.195 624.314 684.314 618.195 691.84 614.36C700.397 610 711.598 610 734 610H736.2C757.482 610 768.123 610 776.252 614.142C783.402 617.785 789.215 623.598 792.858 630.748C797 638.877 797 649.518 797 670.8V846.5C797 868.43 797 879.396 792.817 887.809C788.936 895.613 782.613 901.936 774.809 905.817C766.396 910 755.43 910 733.5 910V910C711.57 910 700.604 910 692.191 905.817C684.387 901.936 678.064 895.613 674.183 887.809C670 879.396 670 868.43 670 846.5V674Z" fill="#FF9AD9"/>
<path d="M883 673.5C883 651.57 883 640.604 887.183 632.191C891.064 624.387 897.387 618.064 905.191 614.183C913.604 610 924.57 610 946.5 610V610C968.43 610 979.396 610 987.809 614.183C995.613 618.064 1001.94 624.387 1005.82 632.191C1010 640.604 1010 651.57 1010 673.5V846.5C1010 868.43 1010 879.396 1005.82 887.809C1001.94 895.613 995.613 901.936 987.809 905.817C979.396 910 968.43 910 946.5 910V910C924.57 910 913.604 910 905.191 905.817C897.387 901.936 891.064 895.613 887.183 887.809C883 879.396 883 868.43 883 846.5V673.5Z" fill="#FF9AD9"/>
<path d="M797 789C797 782.273 805.564 779.418 809.6 784.8L893.6 896.8C897.061 901.415 893.768 908 888 908H804C800.134 908 797 904.866 797 901V789Z" fill="#363636"/>
<path d="M883 729C883 735.727 874.436 738.582 870.4 733.2L786.4 621.2C782.939 616.585 786.232 610 792 610L876 610C879.866 610 883 613.134 883 617L883 729Z" fill="#363636"/>
</svg>
